<?xml version="1.0" encoding="utf-8"?>
<!-- Generator: Adobe Illustrator 18.1.1, SVG Export Plug-In . SVG Version: 6.00 Build 0)  -->
<svg version="1.1" baseProfile="tiny" xmlns="http://www.w3.org/2000/svg" xmlns:xlink="http://www.w3.org/1999/xlink" x="0px"
	 y="0px" width="24px" height="24px" viewBox="0 0 24 24" xml:space="preserve">
<g id="icons">
	<path fill="#66A400" d="M17,7c-0.3,0-0.5,0.1-0.7,0.3L10,13.6l-2.3-2.3C7.5,11.1,7.3,11,7,11s-0.5,0.1-0.7,0.3l-1,1
		c-0.4,0.4-0.4,1,0,1.4l4,4C9.5,17.9,9.7,18,10,18s0.5-0.1,0.7-0.3l8-8c0.4-0.4,0.4-1,0-1.4l-1-1C17.5,7.1,17.3,7,17,7L17,7z"/>
	<rect fill="none" width="24" height="24"/>
</g>
<g id="building_x5F_help" display="none">
	<rect x="2" y="2" display="inline" fill="none" width="20" height="20"/>
</g>
</svg>
