<?xml version="1.0" encoding="utf-8"?>
<!-- Generator: Adobe Illustrator 18.1.1, SVG Export Plug-In . SVG Version: 6.00 Build 0)  -->
<svg version="1.1" baseProfile="tiny" xmlns="http://www.w3.org/2000/svg" xmlns:xlink="http://www.w3.org/1999/xlink" x="0px"
	 y="0px" width="24px" height="24px" viewBox="0 0 24 24" xml:space="preserve">
<g id="icons">
	<path fill="#C94A38" d="M12,2C6.5,2,2,6.5,2,12s4.5,10,10,10s10-4.5,10-10S17.5,2,12,2z M10,17c0-1.1,0.9-2,2-2s2,0.9,2,2
		s-0.9,2-2,2S10,18.1,10,17z M14,12c0,0.5-0.5,1-1,1h-2c-0.5,0-1-0.5-1-1V6c0-0.5,0.5-1,1-1h2c0.5,0,1,0.5,1,1V12z"/>
	<rect fill="none" width="24" height="24"/>
</g>
<g id="building_x5F_help" display="none">
	<rect x="2" y="2" display="inline" fill="none" width="20" height="20"/>
</g>
</svg>
