<?xml version="1.0" encoding="utf-8"?>
<!-- Generator: Adobe Illustrator 19.1.0, SVG Export Plug-In . SVG Version: 6.00 Build 0)  -->
<svg version="1.1" baseProfile="tiny" id="Ebene_1" xmlns="http://www.w3.org/2000/svg" xmlns:xlink="http://www.w3.org/1999/xlink"
	 x="0px" y="0px" width="80px" height="24px" viewBox="0 0 80 24" xml:space="preserve">
<g id="logo_x5F_trivago_x5F_colour_x5F_40_2">
</g>
<g id="icn_x5F_menu_x5F_1_3">
</g>
<g id="icn_x5F_menu_x5F_1_4">
</g>
<g id="logo_x5F_icn_x5F_trivago_2">
</g>
<g id="logo_x5F_icn_x5F_trivago_3">
</g>
<g id="logo_x5F_icn_x5F_trivago_4">
</g>
<polygon fill="#F48F00" points="25.1,5.4 29.1,5.4 32.2,13.7 32.3,13.7 35.1,5.4 38.9,5.4 34.1,17.6 30.1,17.6 "/>
<path fill="#007FAD" d="M10.4,8.4H6.7v4.1c0,0.7,0.1,1.6,0.7,2c0.6,0.4,1.5,0.3,2.2,0.2c0.4,0,0.6-0.1,0.8-0.3v3.1
	c-0.5,0.1-0.9,0.2-1.4,0.3c-2.6,0.3-6.4-0.2-6.4-3.6V8.4H0v-3h2.6V1.8h4.1v3.6h3.7V8.4z"/>
<path fill="#007FAD" d="M20.9,5.4h3.7v12.2h-3.7V5.4z M20.7,2.1c0-1.1,0.9-2,2-2c1.1,0,2,0.9,2,2c0,1.1-0.9,2-2,2
	C21.7,4.1,20.7,3.2,20.7,2.1"/>
<path fill="#C94A30" d="M67.1,11.5c0,1.6,1,3.1,2.7,3.1c1.8,0,2.7-1.4,2.7-3.1c0-1.6-1-3.1-2.7-3.1C68,8.4,67.1,9.8,67.1,11.5
	 M63.7,11.5c0-2.6,1.4-5.1,3.9-6c2.5-0.9,5.5-0.2,7.1,1.9c1.5,2,1.7,5,0.5,7.3c-1.2,2.4-4,3.5-6.6,3C65.5,17.2,63.7,14.5,63.7,11.5"
	/>
<path fill="#CDD0D2" d="M77.7,8.8c-0.9,0-1.6-0.7-1.6-1.6c0-0.9,0.7-1.6,1.6-1.6c0.9,0,1.6,0.7,1.6,1.6C79.4,8,78.6,8.8,77.7,8.8
	 M77.7,5.1c-1.1,0-2,0.9-2,2c0,1.1,0.9,2,2,2c1.1,0,2-0.9,2-2C79.7,6,78.9,5.1,77.7,5.1 M78,6.8c0-0.2-0.2-0.2-0.4-0.2h-0.2V7h0.1
	C77.8,7,78,7,78,6.8 M78.8,8.1h-0.6l-0.5-0.7h-0.2v0.7H77V6.2h0.8c0.1,0,0.2,0,0.3,0c0.4,0.1,0.6,0.5,0.3,0.9
	c-0.1,0.1-0.2,0.2-0.3,0.2L78.8,8.1z"/>
<path fill="#C94A30" d="M59.7,5.3V7h-0.1c-0.1-0.1-0.2-0.2-0.4-0.5c-2.4-2.1-6.6-1.7-8.1,1.3c-0.8,1.5-0.9,3.4-0.7,5.1
	c0.2,1.5,0.8,3.2,2.1,4.1c1.5,1,3.5,1.2,5.2,0.5c0.8-0.3,1.3-0.9,1.5-1.2h0v1.2c0,0.9-0.2,1.6-0.7,2.1c-1.1,1.1-3.1,1-4.5,0.7
	c-0.7-0.2-1.5-0.5-2.2-1L50.1,22c1,0.7,1.9,1.1,2.9,1.4c2.7,0.7,6.4,0.7,8.4-1.4c1.2-1.2,1.6-2.9,1.6-5.3V5.3H59.7z M58.8,13.7
	c-1,1.2-3,1.2-4,0c-1-1.2-1-3.3,0-4.5c1-1.2,3-1.2,4,0C59.8,10.4,59.8,12.5,58.8,13.7C58.3,14.3,59.3,13.1,58.8,13.7z"/>
<path fill="#007FAD" d="M11.4,5.4h3.8v2h0c0.4-0.8,0.9-1.3,1.4-1.7c1.2-0.8,3.1-0.5,3.3-0.4v3.4c-0.8-0.2-2.4-0.5-3.5,0.2
	c-0.7,0.4-1.3,1-1.3,3.7v5.1h-3.8V5.4z"/>
<path fill="#F48F00" d="M42.4,12.7c-0.7,0.5-1.3,1.4-0.6,2.1c0.7,0.7,1.9,0.6,2.7,0.3c0.9-0.3,1.6-1,1.6-2.1l0-0.8
	C46.2,12.3,43.4,12.1,42.4,12.7z M46.2,16.1L46.2,16.1c-0.5,0.6-1,1.1-1.7,1.4c-2.7,1.1-6.5,0-6.5-3.3c0-3.5,3.8-4.2,6.5-4.3
	c0.6,0,1.2,0,1.7,0c0-0.7-0.2-1.2-0.7-1.6c-0.9-0.8-2.3-0.7-3.4-0.2c-0.5,0.3-1,0.6-1.4,1.1l-2-2.1c0.7-0.6,1.5-1.1,2.5-1.5
	c1.6-0.6,3.6-0.7,5.2-0.2C48,5.8,49,7.1,49.4,8.7c0.2,0.8,0.2,1.7,0.2,2.7v6.2h-3.4V16.1z"/>
<rect fill="none" width="80" height="24"/>
</svg>
