<svg baseProfile="tiny" xmlns="http://www.w3.org/2000/svg" width="29" height="29" viewBox="0 0 29 29"><g fill="#007fad"><path d="M14.5 0C6.5 0 0 6.5 0 14.5S6.5 29 14.5 29 29 22.5 29 14.5 22.5 0 14.5 0zm0 28C7.05 28 1 21.95 1 14.5S7.05 1 14.5 1 28 7.05 28 14.5 21.95 28 14.5 28z"/><circle cx="14.5" cy="24.75" r="1.5"/><circle cx="24.75" cy="14.5" r="1.5"/><circle cx="4.25" cy="14.5" r="1.5"/><circle cx="14.5" cy="4.25" r="1.5"/><path d="M20.9 7.4l-5.75 5.75c-.2-.1-.4-.15-.65-.15s-.5.05-.7.2L9.6 9.4c-.2-.2-.5-.15-.7.05s-.15.5.05.7l4.2 3.8c-.1.15-.15.35-.15.55 0 .85.65 1.5 1.5 1.5s1.5-.65 1.5-1.5c0-.25-.05-.45-.15-.65L21.6 8.1c.2-.2.2-.5 0-.7s-.5-.2-.7 0z"/></g></svg>
