<?xml version="1.0" encoding="utf-8"?>
<!-- Generator: Adobe Illustrator 19.1.0, SVG Export Plug-In . SVG Version: 6.00 Build 0)  -->
<svg version="1.1" baseProfile="tiny" id="icons" xmlns="http://www.w3.org/2000/svg" xmlns:xlink="http://www.w3.org/1999/xlink"
	 x="0px" y="0px" width="24px" height="24px" viewBox="0 0 24 24" xml:space="preserve">
<path fill="#007fad" d="M18.9,9.5l1.8-1.8c0.4-0.4,0.4-1,0-1.4l-1-1C19.5,5.1,19.3,5,19,5s-0.5,0.1-0.7,0.3l-1.8,1.8l-3.8-3.8
	C12.5,3.1,12.3,3,12,3s-0.5,0.1-0.7,0.3l-8,8C3,11.6,2.9,12,3.1,12.4C3.2,12.8,3.6,13,4,13h1v7c0,0.5,0.5,1,1,1h12c0.5,0,1-0.5,1-1
	v-7h1c0.4,0,0.8-0.2,0.9-0.6c0.2-0.4,0.1-0.8-0.2-1.1L18.9,9.5z M19,6l1,1l-8,8l-4-4l1-1l3,3L19,6z"/>
</svg>
