<svg baseProfile="tiny" xmlns="http://www.w3.org/2000/svg" width="17" height="26" viewBox="0 0 17 26"><g fill="#007fad"><path d="M14.5 4h-12c-.3 0-.5.2-.5.5v17c0 .3.2.5.5.5h12c.3 0 .5-.2.5-.5v-17c0-.3-.2-.5-.5-.5zM14 21H3V5h11v16zM6.5 3h4c.3 0 .5-.2.5-.5s-.2-.5-.5-.5h-4c-.3 0-.5.2-.5.5s.2.5.5.5z"/><path d="M15 0H2C.9 0 0 .9 0 2v22c0 1.1.9 2 2 2h13c1.1 0 2-.9 2-2V2c0-1.1-.9-2-2-2zm1 24c0 .55-.45 1-1 1H2c-.55 0-1-.45-1-1V2c0-.55.45-1 1-1h13c.55 0 1 .45 1 1v22z"/><circle cx="8.5" cy="23.5" r="1"/></g></svg>
