<?xml version="1.0" encoding="utf-8"?>
<!-- Generator: Adobe Illustrator 19.1.0, SVG Export Plug-In . SVG Version: 6.00 Build 0)  -->
<svg version="1.1" baseProfile="tiny" id="icons" xmlns="http://www.w3.org/2000/svg" xmlns:xlink="http://www.w3.org/1999/xlink"
	 x="0px" y="0px" width="24px" height="24px" viewBox="0 0 24 24" xml:space="preserve">
<path fill="#007fad" d="M19,5H5C3.9,5,3,5.9,3,7v10c0,1.1,0.9,2,2,2h14c1.1,0,2-0.9,2-2V7C21,5.9,20.1,5,19,5z M20,7v10
	c0,0.1,0,0.2,0,0.2L14.7,12L20,6.8C20,6.8,20,6.9,20,7z M19,6c0.1,0,0.2,0,0.2,0L12,13.3L4.8,6C4.8,6,4.9,6,5,6H19z M4,17.2
	c0-0.1,0-0.2,0-0.2V7c0-0.1,0-0.2,0-0.2L9.3,12L4,17.2z M5,18c-0.1,0-0.2,0-0.2,0l5.2-5.2l1.6,1.6c0.1,0.1,0.2,0.1,0.4,0.1
	s0.3,0,0.4-0.1l1.6-1.6l5.2,5.2c-0.1,0-0.2,0-0.2,0H5z"/>
</svg>
